
		<svg xmlns="http://www.w3.org/2000/svg" xmlns:xlink="http://www.w3.org/1999/xlink" version="1.1" width="3039.787798408488" height="433.68700265251994">
			<rect fill="#ffffff" width="3039.787798408488" height="433.68700265251994"/>
			<g transform="scale(1.9893899204244032) translate(10, 10)">
				<defs id="SvgjsDefs2276"></defs><g id="SvgjsG2277" featureKey="root" fill="#ffffff"></g><g id="SvgjsG2278" featureKey="container1" fill="#800020" transform="matrix(1.25,0,0,1.25,0,0)"><rect xmlns="http://www.w3.org/2000/svg" width="1206" height="158"></rect></g><g id="SvgjsG2279" featureKey="symbol1" fill="#ffffff" transform="matrix(1.4893616437911987,0,0,1.4893616437911987,176.53191489361703,24.680851063829788)"><path xmlns="http://www.w3.org/2000/svg" d="M93,70V31.174l-0.508-4.442l-0.693-4.442l-0.785,4.442l-0.832,4.442L87.219,17l-2.974,14.174l-0.872-4.442L82.5,22.289  l-0.751,4.442L81,31.174V38H53v-2h-5v2H19v-6.826l-0.514-4.442l-0.695-4.442l-0.786,4.442l-0.833,4.442L13.21,17l-2.974,14.174  l-0.873-4.442l-0.875-4.442l-0.744,4.442L7,31.174V70H3v13h0.045H23.42H24v-7.898l22.918-21.857l0.456-0.361l-0.057-0.142  l-0.736-0.668L20.253,70H19V42h28.677h5.077H81v28h-1.253L53.634,52.073l-0.518,0.712l-0.095,0.12l0.321,0.349L76,75.057V83h1.056  H97V70H93z M17,61H9v-1h8V61z M10,59v-3h1v3H10z M12,59v-3h2v3H12z M15,59v-3h1v3H15z M17,53H9v-1h8V53z M11,46v5h-1v-5H11z M10,42  v-4h1v4H10z M14,46v5h-2v-5H14z M12,42v-4h2v4H12z M16,46v5h-1v-5H16z M15,42v-4h1v4H15z M17,37H9v-1h3v-4h3v4h2V37z M24.323,74.404  v-0.957l0.753,0.234L24.323,74.404z M44.568,54.959l-2.159,2.074l-1.247,0.252L44.568,54.959z M41.733,57.682l-1.553,1.492  l0.623-1.305L41.733,57.682z M40.216,57.932l-0.726,1.52l-1.804,0.209L40.216,57.932z M37.447,60.193l1.9-0.221l-2.375,2.283  L37.447,60.193z M36.936,60.174l-0.542,2.357l-2.388-0.357L36.936,60.174z M33.947,62.672l2.24,0.338l-2.284,2.193L33.947,62.672z   M33.446,62.557l-0.045,2.598l-3.025-0.502L33.446,62.557z M30.317,65.152l3.105,0.514l-3.228,3.1L30.317,65.152z M29.819,65.033  l-0.126,3.664l-3.848-0.949L29.819,65.033z M25.802,68.256l3.917,0.965l-4.173,4.008L25.802,68.256z M25.307,68.312l-0.42,4.935  L24,72.996V70h-0.939L25.307,68.312z M80,41H20v-2h60V41z M55.907,54.959l3.404,2.326l-1.245-0.252L55.907,54.959z M58.742,57.682  l0.931,0.188l0.623,1.305L58.742,57.682z M60.259,57.932l2.529,1.729l-1.804-0.209L60.259,57.932z M61.128,59.973l1.9,0.221  l0.475,2.063L61.128,59.973z M63.539,60.174l2.931,2l-2.388,0.357L63.539,60.174z M64.288,63.01l2.24-0.338l0.044,2.531  L64.288,63.01z M70.1,64.652l-3.025,0.502l-0.046-2.598L70.1,64.652z M67.054,65.666l3.104-0.514l0.123,3.613L67.054,65.666z   M74.63,67.748l-3.848,0.949l-0.127-3.664L74.63,67.748z M70.756,69.221l3.917-0.965l0.256,4.973L70.756,69.221z M76.107,74.361  l-0.708-0.68l0.708-0.219V74.361z M76,70v2.938l-0.627,0.211l-0.232-4.944L77.67,70H76z M91,61h-8v-1h8V61z M84,59v-3h1v3H84z   M86,59v-3h2v3H86z M89,59v-3h1v3H89z M91,53h-8v-1h8V53z M85,46v5h-1v-5H85z M84,42v-4h1v4H84z M88,46v5h-2v-5H88z M86,42v-4h2v4  H86z M90,46v5h-1v-5H90z M89,42v-4h1v4H89z M91,37h-8v-1h2v-4h3v4h3V37z"></path></g><g id="SvgjsG2280" featureKey="text1" fill="#ffffff" transform="matrix(3.5133893489837646,0,0,3.5133893489837646,338.54337233500087,18.43319799892503)"><path d="M11 20.62 l1 0 c-0.48 1.8 -1.9 3.68 -5.02 3.68 c-3.74 0 -6.28 -2.6 -6.28 -6.56 c0 -3.72 2.58 -6.48 5.98 -6.48 c1.62 0 2.16 0.46 3.3 0.46 c0.24 0 0.42 0 0.94 -0.12 c0.12 1.16 0.4 2.3 0.92 3.48 l-1.46 0 c-0.82 -1.78 -2 -2.96 -3.8 -2.96 c-1.74 0 -2.9 1.62 -2.9 5.06 c0 3.46 1.3 6.2 3.76 6.2 c1.48 0 2.86 -0.72 3.56 -2.76 z M13.120000000000001 11.58 c1.9 0.06 3.88 0.06 5.78 0 l0 0.76 c-1.1 0.08 -1.48 0.24 -1.48 0.74 l0 8.38 c0 4.56 -2 6.06 -5.42 6.06 l0 -0.78 c1.66 0 2.6 -0.76 2.6 -3.62 l0 -10.04 c0 -0.5 -0.38 -0.66 -1.48 -0.74 l0 -0.76 z  M34.8 20.62 l1 0 c-0.48 1.8 -1.9 3.68 -5.02 3.68 c-3.74 0 -6.28 -2.6 -6.28 -6.56 c0 -3.72 2.58 -6.48 5.98 -6.48 c1.62 0 2.16 0.46 3.3 0.46 c0.24 0 0.42 0 0.94 -0.12 c0.12 1.16 0.4 2.3 0.92 3.48 l-1.46 0 c-0.82 -1.78 -2 -2.96 -3.8 -2.96 c-1.74 0 -2.9 1.62 -2.9 5.06 c0 3.46 1.3 6.2 3.76 6.2 c1.48 0 2.86 -0.72 3.56 -2.76 z M49.559999999999995 12.34 c-1.1 0.08 -1.48 0.24 -1.48 0.74 l0 9.42 c0 0.5 0.38 0.66 1.48 0.74 l0 0.76 c-1.9 -0.06 -3.88 -0.06 -5.78 0 l0 -0.76 c1.1 -0.08 1.48 -0.24 1.48 -0.74 l0 -4.32 l-4.26 0 l0 4.32 c0 0.5 0.38 0.66 1.48 0.74 l0 0.76 c-1.9 -0.06 -3.88 -0.06 -5.78 0 l0 -0.76 c1.1 -0.08 1.48 -0.24 1.48 -0.74 l0 -9.42 c0 -0.5 -0.38 -0.66 -1.48 -0.74 l0 -0.76 c1.9 0.06 3.88 0.06 5.78 0 l0 0.76 c-1.1 0.08 -1.48 0.24 -1.48 0.74 l0 4.3 l4.26 0 l0 -4.3 c0 -0.5 -0.38 -0.66 -1.48 -0.74 l0 -0.76 c1.9 0.06 3.88 0.06 5.78 0 l0 0.76 z M61.44 21.46 c0.48 1.26 0.78 1.68 2.1 1.78 l0 0.76 c-2.02 -0.06 -4.04 -0.06 -6.06 0 l0 -0.76 c1.18 -0.08 1.64 -0.24 1.34 -1.04 l-0.9 -2.42 l-3.74 0 l-0.8 2.42 c-0.26 0.8 0.58 0.96 1.98 1.04 l0 0.76 c-1.64 -0.06 -3.46 -0.06 -5.1 0 l0 -0.76 c1.4 -0.1 1.94 -0.42 2.26 -1.34 l3.52 -10.42 l1.64 0 z M54.459999999999994 18.98 l3.16 0 l-1.68 -4.48 z M70.56 21.48 c0 -1.1 -0.78 -1.82 -2.62 -2.72 s-3.54 -1.88 -3.54 -4.12 c0 -2.04 1.7 -3.38 3.84 -3.38 c1.48 0 2.08 0.48 2.56 0.48 c0.24 0 0.42 -0.08 0.48 -0.32 l0.8 0 l0.16 2.88 l-0.5 -0.02 c-0.32 -0.02 -0.48 -0.1 -0.64 -0.44 c-0.54 -1.16 -1.44 -1.74 -2.4 -1.74 c-1.16 0 -1.82 0.78 -1.82 1.68 c0 1.18 0.86 1.78 2.32 2.46 c1.52 0.72 4.04 1.68 4.04 4.32 c0 2.58 -2.36 3.72 -4.12 3.72 c-1.8 0 -2.56 -0.78 -3.18 -0.78 c-0.46 0 -0.6 0.26 -0.66 0.5 l-0.84 0 l-0.2 -3.04 l0.66 0 c0.32 0 0.48 0.08 0.58 0.38 c0.42 1.26 1.72 2.04 3.1 2.04 c1.18 0 1.98 -0.74 1.98 -1.9 z M83.19999999999999 20.52 l0.88 0 c-0.42 1.22 -0.62 2.36 -0.64 3.48 c-3.22 -0.08 -6.12 -0.08 -9.2 0 l0 -0.76 c1.1 -0.08 1.44 -0.24 1.44 -0.74 l0 -9.44 c0 -0.5 -0.34 -0.64 -1.44 -0.72 l0 -0.76 l8.84 0 c0.26 0 0.3 0.06 0.34 0.36 l0.32 2.38 l-0.86 0 l-0.24 -0.42 c-0.6 -1.04 -1 -1.46 -2.12 -1.46 l-1.72 0 c-0.18 0 -0.3 0.12 -0.3 0.3 l0 4.44 l2.14 0 c1 0 1.28 -0.38 1.46 -1.22 l0.68 0 c-0.1 1.16 -0.1 2.18 0 3.34 l-0.68 0 c-0.18 -0.82 -0.44 -1.26 -1.46 -1.26 l-2.14 0 l0 4.78 c0 0.18 0.12 0.3 0.3 0.3 l1.18 0 c1.46 0 2.1 -0.26 2.58 -1.26 z  M97.62 17.22 c2.5 0.44 3.66 1.64 3.66 3.3 c0 2.22 -1.9 3.48 -5.62 3.48 l-6.08 0 l0 -0.76 c1.1 -0.08 1.44 -0.22 1.44 -0.72 l0 -9.34 c0 -0.5 -0.34 -0.76 -1.32 -0.84 l0 -0.76 c1.94 0.08 3.7 0 4.76 0 c4.36 0 5.48 1.52 5.48 3.08 c0 1.02 -0.62 1.96 -2.32 2.56 z M93.84 12.4 l0 4.88 c2.62 -0.42 3.44 -1.06 3.44 -2.62 c0 -1.3 -0.64 -2.28 -2.34 -2.28 c-0.54 0 -0.8 0 -1.1 0.02 z M95.62 23.14 c1.82 0 2.8 -0.8 2.8 -2.62 c0 -1.62 -0.88 -2.72 -2.84 -2.72 l-1.74 0.3 l0 4.36 c0 0.5 0.06 0.68 1.02 0.68 l0.76 0 z M115.84 12.34 c-1.1 0.08 -1.48 0.24 -1.48 0.74 l0 9.42 c0 0.5 0.38 0.66 1.48 0.74 l0 0.76 c-1.9 -0.06 -3.24 -0.06 -4.6 0 l0 -0.76 c0.18 -0.14 0.3 -0.28 0.3 -0.74 l0 -0.68 c-0.6 1.14 -1.72 2.38 -3.78 2.38 c-2.7 0 -4.2 -1.6 -4.2 -3.98 l0 -7.14 c0 -0.5 -0.38 -0.66 -1.48 -0.74 l0 -0.76 c1.9 0.06 3.9 0.06 5.8 0 l0 0.76 c-1.1 0.08 -1.48 0.24 -1.48 0.74 l0 7.12 c0 1.94 0.66 3.1 2.08 3.1 c1.5 0 2.48 -1.34 3.06 -2.58 l0 -7.64 c0 -0.5 -0.38 -0.66 -1.48 -0.74 l0 -0.76 c1.9 0.06 3.88 0.06 5.78 0 l0 0.76 z M122.96000000000001 21.48 c0 -1.1 -0.78 -1.82 -2.62 -2.72 s-3.54 -1.88 -3.54 -4.12 c0 -2.04 1.7 -3.38 3.84 -3.38 c1.48 0 2.08 0.48 2.56 0.48 c0.24 0 0.42 -0.08 0.48 -0.32 l0.8 0 l0.16 2.88 l-0.5 -0.02 c-0.32 -0.02 -0.48 -0.1 -0.64 -0.44 c-0.54 -1.16 -1.44 -1.74 -2.4 -1.74 c-1.16 0 -1.82 0.78 -1.82 1.68 c0 1.18 0.86 1.78 2.32 2.46 c1.52 0.72 4.04 1.68 4.04 4.32 c0 2.58 -2.36 3.72 -4.12 3.72 c-1.8 0 -2.56 -0.78 -3.18 -0.78 c-0.46 0 -0.6 0.26 -0.66 0.5 l-0.84 0 l-0.2 -3.04 l0.66 0 c0.32 0 0.48 0.08 0.58 0.38 c0.42 1.26 1.72 2.04 3.1 2.04 c1.18 0 1.98 -0.74 1.98 -1.9 z M130.94 22.5 c0 0.5 0.38 0.66 1.48 0.74 l0 0.76 c-1.9 -0.06 -3.88 -0.06 -5.78 0 l0 -0.76 c1.1 -0.08 1.48 -0.24 1.48 -0.74 l0 -9.42 c0 -0.5 -0.38 -0.66 -1.48 -0.74 l0 -0.76 c1.9 0.06 3.88 0.06 5.78 0 l0 0.76 c-1.1 0.08 -1.48 0.24 -1.48 0.74 l0 9.42 z M140.76 11.58 c1.76 0.06 3.54 0.06 5.1 0 l0 0.76 c-1.1 0.1 -2 0.24 -2 0.74 l0 10.92 l-0.86 0 l-6.88 -9.96 l0 8.46 c0 0.5 0.9 0.64 2.2 0.74 l0 0.76 c-1.76 -0.06 -3.54 -0.06 -5.1 0 l0 -0.76 c1.1 -0.1 1.98 -0.24 1.98 -0.74 l0 -9.16 c0 -0.46 -0.68 -0.92 -1.78 -1 l0 -0.76 c1.44 0.06 2.88 0.06 4.32 0 l5.2 7.6 l0 -6.1 c0 -0.5 -0.88 -0.64 -2.18 -0.74 l0 -0.76 z M155.62 20.52 l0.88 0 c-0.42 1.22 -0.62 2.36 -0.64 3.48 c-3.22 -0.08 -6.12 -0.08 -9.2 0 l0 -0.76 c1.1 -0.08 1.44 -0.24 1.44 -0.74 l0 -9.44 c0 -0.5 -0.34 -0.64 -1.44 -0.72 l0 -0.76 l8.84 0 c0.26 0 0.3 0.06 0.34 0.36 l0.32 2.38 l-0.86 0 l-0.24 -0.42 c-0.6 -1.04 -1 -1.46 -2.12 -1.46 l-1.72 0 c-0.18 0 -0.3 0.12 -0.3 0.3 l0 4.44 l2.14 0 c1 0 1.28 -0.38 1.46 -1.22 l0.68 0 c-0.1 1.16 -0.1 2.18 0 3.34 l-0.68 0 c-0.18 -0.82 -0.44 -1.26 -1.46 -1.26 l-2.14 0 l0 4.78 c0 0.18 0.12 0.3 0.3 0.3 l1.18 0 c1.46 0 2.1 -0.26 2.58 -1.26 z M163.92 21.48 c0 -1.1 -0.78 -1.82 -2.62 -2.72 s-3.54 -1.88 -3.54 -4.12 c0 -2.04 1.7 -3.38 3.84 -3.38 c1.48 0 2.08 0.48 2.56 0.48 c0.24 0 0.42 -0.08 0.48 -0.32 l0.8 0 l0.16 2.88 l-0.5 -0.02 c-0.32 -0.02 -0.48 -0.1 -0.64 -0.44 c-0.54 -1.16 -1.44 -1.74 -2.4 -1.74 c-1.16 0 -1.82 0.78 -1.82 1.68 c0 1.18 0.86 1.78 2.32 2.46 c1.52 0.72 4.04 1.68 4.04 4.32 c0 2.58 -2.36 3.72 -4.12 3.72 c-1.8 0 -2.56 -0.78 -3.18 -0.78 c-0.46 0 -0.6 0.26 -0.66 0.5 l-0.84 0 l-0.2 -3.04 l0.66 0 c0.32 0 0.48 0.08 0.58 0.38 c0.42 1.26 1.72 2.04 3.1 2.04 c1.18 0 1.98 -0.74 1.98 -1.9 z M173.92 21.48 c0 -1.1 -0.78 -1.82 -2.62 -2.72 s-3.54 -1.88 -3.54 -4.12 c0 -2.04 1.7 -3.38 3.84 -3.38 c1.48 0 2.08 0.48 2.56 0.48 c0.24 0 0.42 -0.08 0.48 -0.32 l0.8 0 l0.16 2.88 l-0.5 -0.02 c-0.32 -0.02 -0.48 -0.1 -0.64 -0.44 c-0.54 -1.16 -1.44 -1.74 -2.4 -1.74 c-1.16 0 -1.82 0.78 -1.82 1.68 c0 1.18 0.86 1.78 2.32 2.46 c1.52 0.72 4.04 1.68 4.04 4.32 c0 2.58 -2.36 3.72 -4.12 3.72 c-1.8 0 -2.56 -0.78 -3.18 -0.78 c-0.46 0 -0.6 0.26 -0.66 0.5 l-0.84 0 l-0.2 -3.04 l0.66 0 c0.32 0 0.48 0.08 0.58 0.38 c0.42 1.26 1.72 2.04 3.1 2.04 c1.18 0 1.98 -0.74 1.98 -1.9 z  M188.32 21.48 c0 -1.1 -0.78 -1.82 -2.62 -2.72 s-3.54 -1.88 -3.54 -4.12 c0 -2.04 1.7 -3.38 3.84 -3.38 c1.48 0 2.08 0.48 2.56 0.48 c0.24 0 0.42 -0.08 0.48 -0.32 l0.8 0 l0.16 2.88 l-0.5 -0.02 c-0.32 -0.02 -0.48 -0.1 -0.64 -0.44 c-0.54 -1.16 -1.44 -1.74 -2.4 -1.74 c-1.16 0 -1.82 0.78 -1.82 1.68 c0 1.18 0.86 1.78 2.32 2.46 c1.52 0.72 4.04 1.68 4.04 4.32 c0 2.58 -2.36 3.72 -4.12 3.72 c-1.8 0 -2.56 -0.78 -3.18 -0.78 c-0.46 0 -0.6 0.26 -0.66 0.5 l-0.84 0 l-0.2 -3.04 l0.66 0 c0.32 0 0.48 0.08 0.58 0.38 c0.42 1.26 1.72 2.04 3.1 2.04 c1.18 0 1.98 -0.74 1.98 -1.9 z M198.14 11.26 c3.42 0 5.96 2.6 5.96 6.6 c0 3.74 -2.54 6.44 -5.94 6.44 c-3.42 0 -5.96 -2.6 -5.96 -6.6 c0 -3.74 2.54 -6.44 5.94 -6.44 z M198.48 23.44 c1.52 0 2.64 -1.62 2.64 -5.06 c0 -3.52 -1.32 -6.26 -3.3 -6.26 c-1.52 0 -2.64 1.62 -2.64 5.06 c0 3.52 1.32 6.26 3.3 6.26 z M214.28 20.52 l0.88 0 c-0.42 1.22 -0.62 2.36 -0.64 3.48 c-3.22 -0.06 -6.2 -0.06 -9.28 0 l0 -0.76 c1.1 -0.08 1.44 -0.24 1.44 -0.74 l0 -9.42 c0 -0.5 -0.38 -0.66 -1.48 -0.74 l0 -0.76 c1.9 0.06 3.88 0.06 5.78 0 l0 0.76 c-1.1 0.08 -1.48 0.24 -1.48 0.74 l0 9.76 c0 0.18 0.12 0.3 0.3 0.3 l1.26 0 c1.46 0 2.1 -0.28 2.58 -1.28 z M229.62 12.34 c-1.1 0.08 -1.48 0.24 -1.48 0.74 l0 9.42 c0 0.5 0.38 0.66 1.48 0.74 l0 0.76 c-1.9 -0.06 -3.24 -0.06 -4.6 0 l0 -0.76 c0.18 -0.14 0.3 -0.28 0.3 -0.74 l0 -0.68 c-0.6 1.14 -1.72 2.38 -3.78 2.38 c-2.7 0 -4.2 -1.6 -4.2 -3.98 l0 -7.14 c0 -0.5 -0.38 -0.66 -1.48 -0.74 l0 -0.76 c1.9 0.06 3.9 0.06 5.8 0 l0 0.76 c-1.1 0.08 -1.48 0.24 -1.48 0.74 l0 7.12 c0 1.94 0.66 3.1 2.08 3.1 c1.5 0 2.48 -1.34 3.06 -2.58 l0 -7.64 c0 -0.5 -0.38 -0.66 -1.48 -0.74 l0 -0.76 c1.9 0.06 3.88 0.06 5.78 0 l0 0.76 z M240.16000000000003 11.44 l0.86 0 l-0.74 2.74 l-0.88 0 c0.18 -1.5 -0.14 -1.74 -0.86 -1.74 l-1.5 0 l0 10.06 c0 0.5 0.38 0.66 1.48 0.74 l0 0.76 c-1.9 -0.06 -3.88 -0.06 -5.78 0 l0 -0.76 c1.1 -0.08 1.48 -0.24 1.48 -0.74 l0 -10.06 l-1.46 0 c-0.72 0 -0.96 0.26 -1.66 1.74 l-0.88 0 l0.7 -2.74 l0.86 0 c0.64 0.14 1.04 0.14 2.12 0.14 l4.16 0 c1.06 0 1.46 0 2.1 -0.14 z M246.12000000000003 22.5 c0 0.5 0.38 0.66 1.48 0.74 l0 0.76 c-1.9 -0.06 -3.88 -0.06 -5.78 0 l0 -0.76 c1.1 -0.08 1.48 -0.24 1.48 -0.74 l0 -9.42 c0 -0.5 -0.38 -0.66 -1.48 -0.74 l0 -0.76 c1.9 0.06 3.88 0.06 5.78 0 l0 0.76 c-1.1 0.08 -1.48 0.24 -1.48 0.74 l0 9.42 z M254.74 11.26 c3.42 0 5.96 2.6 5.96 6.6 c0 3.74 -2.54 6.44 -5.94 6.44 c-3.42 0 -5.96 -2.6 -5.96 -6.6 c0 -3.74 2.54 -6.44 5.94 -6.44 z M255.08 23.44 c1.52 0 2.64 -1.62 2.64 -5.06 c0 -3.52 -1.32 -6.26 -3.3 -6.26 c-1.52 0 -2.64 1.62 -2.64 5.06 c0 3.52 1.32 6.26 3.3 6.26 z M269.24 11.58 c1.76 0.06 3.54 0.06 5.1 0 l0 0.76 c-1.1 0.1 -2 0.24 -2 0.74 l0 10.92 l-0.86 0 l-6.88 -9.96 l0 8.46 c0 0.5 0.9 0.64 2.2 0.74 l0 0.76 c-1.76 -0.06 -3.54 -0.06 -5.1 0 l0 -0.76 c1.1 -0.1 1.98 -0.24 1.98 -0.74 l0 -9.16 c0 -0.46 -0.68 -0.92 -1.78 -1 l0 -0.76 c1.44 0.06 2.88 0.06 4.32 0 l5.2 7.6 l0 -6.1 c0 -0.5 -0.88 -0.64 -2.18 -0.74 l0 -0.76 z M281.46000000000004 21.48 c0 -1.1 -0.78 -1.82 -2.62 -2.72 s-3.54 -1.88 -3.54 -4.12 c0 -2.04 1.7 -3.38 3.84 -3.38 c1.48 0 2.08 0.48 2.56 0.48 c0.24 0 0.42 -0.08 0.48 -0.32 l0.8 0 l0.16 2.88 l-0.5 -0.02 c-0.32 -0.02 -0.48 -0.1 -0.64 -0.44 c-0.54 -1.16 -1.44 -1.74 -2.4 -1.74 c-1.16 0 -1.82 0.78 -1.82 1.68 c0 1.18 0.86 1.78 2.32 2.46 c1.52 0.72 4.04 1.68 4.04 4.32 c0 2.58 -2.36 3.72 -4.12 3.72 c-1.8 0 -2.56 -0.78 -3.18 -0.78 c-0.46 0 -0.6 0.26 -0.66 0.5 l-0.84 0 l-0.2 -3.04 l0.66 0 c0.32 0 0.48 0.08 0.58 0.38 c0.42 1.26 1.72 2.04 3.1 2.04 c1.18 0 1.98 -0.74 1.98 -1.9 z"></path></g><g id="SvgjsG2281" featureKey="text3" fill="#ffffff" transform="matrix(1.0919313430786133,0,0,1.0919313430786133,339.6905354111491,119.34087293961437)"><path d="M7.94 16.3 c1.84 0.42 3.04 1.94 3.04 3.7 c0 2.46 -1.6 4 -5.06 4 l-4.72 0 l0 -14 l4.78 0 c2.74 0 4.1 1.56 4.1 3.38 c0 1.34 -0.76 2.42 -2.14 2.92 z M5.86 11.48 l-3 0 l0 4.28 l3 0 c1.6 0 2.58 -0.88 2.58 -2.16 c0 -1.32 -0.92 -2.12 -2.58 -2.12 z M5.86 22.52 c2.4 0 3.46 -0.98 3.46 -2.66 c0 -1.46 -1.06 -2.72 -3.36 -2.72 l-3.1 0 l0 5.38 l3 0 z M23.16 24 l-1.8 0 l-3.54 -5.04 l-0.38 0 l-2.9 0 l0 5.04 l-1.66 0 l0 -14 l4.56 0 c3.14 0 4.96 1.92 4.96 4.52 c0 2 -1.08 3.56 -3 4.16 z M14.54 11.56 l0 5.92 l2.86 0 c2.02 0 3.34 -1.04 3.34 -2.96 c0 -1.94 -1.32 -2.96 -3.34 -2.96 l-2.86 0 z M26.619999999999997 10 l0 14 l-1.66 0 l0 -14 l1.66 0 z M33.18 10 c4.08 0 7.08 3.1 7.08 7 s-3 7 -7.08 7 l-4.16 0 l0 -14 l4.16 0 z M33.16 22.42 c3.34 0 5.4 -2.42 5.4 -5.42 s-2.06 -5.42 -5.4 -5.42 l-2.48 0 l0 10.84 l2.48 0 z M55.52 16.96 c0.3 4.48 -2.76 7.24 -6.4 7.24 c-3.74 0 -7.16 -2.96 -7.16 -7.2 s3.5 -7.2 7.16 -7.2 c1.76 0 3.36 0.6 4.62 1.66 l-1.02 1.16 c-0.98 -0.78 -2.24 -1.24 -3.5 -1.24 c-2.86 0 -5.54 2.32 -5.54 5.62 s2.6 5.62 5.44 5.62 c2.48 0 4.46 -1.34 4.84 -4.22 l-4.08 0 l0 -1.44 l5.64 0 z M59.300000000000004 10 l0 14 l-1.66 0 l0 -14 l1.66 0 z M71.46000000000001 10 l1.66 0 l0 14 l-1.28 0 l-8.48 -10.96 l0 10.96 l-1.66 0 l0 -14 l1.28 0 l8.48 10.98 l0 -10.98 z M88.78 16.96 c0.3 4.48 -2.76 7.24 -6.4 7.24 c-3.74 0 -7.16 -2.96 -7.16 -7.2 s3.5 -7.2 7.16 -7.2 c1.76 0 3.36 0.6 4.62 1.66 l-1.02 1.16 c-0.98 -0.78 -2.24 -1.24 -3.5 -1.24 c-2.86 0 -5.54 2.32 -5.54 5.62 s2.6 5.62 5.44 5.62 c2.48 0 4.46 -1.34 4.84 -4.22 l-4.08 0 l0 -1.44 l5.64 0 z  M105.94 10 l0 1.56 l-3.88 0 l0 12.44 l-1.66 0 l0 -12.44 l-3.9 0 l0 -1.56 l9.44 0 z M116.72000000000001 10 l1.66 0 l0 14 l-1.66 0 l0 -6.12 l-7.12 0 l0 6.12 l-1.66 0 l0 -14 l1.66 0 l0 6.32 l7.12 0 l0 -6.32 z M122.44000000000001 22.44 l6.66 0 l0 1.56 l-7.06 0 l-1.26 0 l0 -14 l1.66 0 l6.48 0 l0 1.56 l-6.48 0 l0 4.64 l5.04 0 l0 1.52 l-5.04 0 l0 4.72 z  M150.46 16.96 c0.3 4.48 -2.76 7.24 -6.4 7.24 c-3.74 0 -7.16 -2.96 -7.16 -7.2 s3.5 -7.2 7.16 -7.2 c1.76 0 3.36 0.6 4.62 1.66 l-1.02 1.16 c-0.98 -0.78 -2.24 -1.24 -3.5 -1.24 c-2.86 0 -5.54 2.32 -5.54 5.62 s2.6 5.62 5.44 5.62 c2.48 0 4.46 -1.34 4.84 -4.22 l-4.08 0 l0 -1.44 l5.64 0 z M163.9 24 l-1.44 -3.3 l-7.48 0 l-1.44 3.3 l-1.76 0 l6.24 -14 l1.38 0 l6.26 14 l-1.76 0 z M155.6 19.3 l6.24 0 l-3.12 -7.12 z M171.82 10 c3.14 0 4.96 1.92 4.96 4.52 s-1.82 4.44 -4.96 4.44 l-2.9 0 l0 5.04 l-1.66 0 l0 -14 l4.56 0 z M171.78 17.48 c2.02 0 3.34 -1.04 3.34 -2.96 c0 -1.94 -1.32 -2.96 -3.34 -2.96 l-2.86 0 l0 5.92 l2.86 0 z  M191.42 16.3 c1.84 0.42 3.04 1.94 3.04 3.7 c0 2.46 -1.6 4 -5.06 4 l-4.72 0 l0 -14 l4.78 0 c2.74 0 4.1 1.56 4.1 3.38 c0 1.34 -0.76 2.42 -2.14 2.92 z M189.34 11.48 l-3 0 l0 4.28 l3 0 c1.6 0 2.58 -0.88 2.58 -2.16 c0 -1.32 -0.92 -2.12 -2.58 -2.12 z M189.34 22.52 c2.4 0 3.46 -0.98 3.46 -2.66 c0 -1.46 -1.06 -2.72 -3.36 -2.72 l-3.1 0 l0 5.38 l3 0 z M198.02 22.44 l6.66 0 l0 1.56 l-7.06 0 l-1.26 0 l0 -14 l1.66 0 l6.48 0 l0 1.56 l-6.48 0 l0 4.64 l5.04 0 l0 1.52 l-5.04 0 l0 4.72 z M215.82 10 l0 1.56 l-3.88 0 l0 12.44 l-1.66 0 l0 -12.44 l-3.9 0 l0 -1.56 l9.44 0 z M236.14 10 l-4.52 14 l-1.08 0 l-3.86 -10.94 l-3.84 10.94 l-1.08 0 l-4.54 -14 l1.72 0 l3.42 10.58 l3.74 -10.58 l1.16 0 l3.76 10.58 l3.42 -10.58 l1.7 0 z M239.6 22.44 l6.66 0 l0 1.56 l-7.06 0 l-1.26 0 l0 -14 l1.66 0 l6.48 0 l0 1.56 l-6.48 0 l0 4.64 l5.04 0 l0 1.52 l-5.04 0 l0 4.72 z M250.01999999999998 22.44 l6.66 0 l0 1.56 l-7.06 0 l-1.26 0 l0 -14 l1.66 0 l6.48 0 l0 1.56 l-6.48 0 l0 4.64 l5.04 0 l0 1.52 l-5.04 0 l0 4.72 z M268.53999999999996 10 l1.66 0 l0 14 l-1.28 0 l-8.48 -10.96 l0 10.96 l-1.66 0 l0 -14 l1.28 0 l8.48 10.98 l0 -10.98 z  M285.34 16.3 c1.84 0.42 3.04 1.94 3.04 3.7 c0 2.46 -1.6 4 -5.06 4 l-4.72 0 l0 -14 l4.78 0 c2.74 0 4.1 1.56 4.1 3.38 c0 1.34 -0.76 2.42 -2.14 2.92 z M283.26 11.48 l-3 0 l0 4.28 l3 0 c1.6 0 2.58 -0.88 2.58 -2.16 c0 -1.32 -0.92 -2.12 -2.58 -2.12 z M283.26 22.52 c2.4 0 3.46 -0.98 3.46 -2.66 c0 -1.46 -1.06 -2.72 -3.36 -2.72 l-3.1 0 l0 5.38 l3 0 z M298.78 10 l1.66 0 l0 8.92 c0 3.44 -2.24 5.38 -5.08 5.38 s-5.08 -1.94 -5.08 -5.38 l0 -8.92 l1.66 0 l0 8.92 c0 2.62 1.56 3.8 3.42 3.8 s3.42 -1.18 3.42 -3.8 l0 -8.92 z M307.14 9.76 c2.18 0 3.78 1.44 4.38 2.94 l-1.26 0.68 c-0.64 -1.28 -1.66 -2.12 -3.12 -2.12 c-1.54 0 -2.6 0.88 -2.6 2.1 c0 1.14 0.72 1.86 2.24 2.44 l1.02 0.38 c2.52 0.94 4.1 2.02 4.1 4.24 c0 2.4 -2.3 3.88 -4.68 3.88 s-4.34 -1.44 -4.88 -3.44 l1.34 -0.64 c0.48 1.48 1.74 2.56 3.54 2.56 c1.6 0 2.96 -0.92 2.96 -2.34 c0 -1.6 -1.12 -2.2 -2.78 -2.84 l-1.04 -0.4 c-2.12 -0.8 -3.48 -1.9 -3.48 -3.88 c0 -2.04 1.8 -3.56 4.26 -3.56 z M315.46 10 l0 14 l-1.66 0 l0 -14 l1.66 0 z M327.61999999999995 10 l1.66 0 l0 14 l-1.28 0 l-8.48 -10.96 l0 10.96 l-1.66 0 l0 -14 l1.28 0 l8.48 10.98 l0 -10.98 z M333.34 22.44 l6.66 0 l0 1.56 l-7.06 0 l-1.26 0 l0 -14 l1.66 0 l6.48 0 l0 1.56 l-6.48 0 l0 4.64 l5.04 0 l0 1.52 l-5.04 0 l0 4.72 z M346.4 9.76 c2.18 0 3.78 1.44 4.38 2.94 l-1.26 0.68 c-0.64 -1.28 -1.66 -2.12 -3.12 -2.12 c-1.54 0 -2.6 0.88 -2.6 2.1 c0 1.14 0.72 1.86 2.24 2.44 l1.02 0.38 c2.52 0.94 4.1 2.02 4.1 4.24 c0 2.4 -2.3 3.88 -4.68 3.88 s-4.34 -1.44 -4.88 -3.44 l1.34 -0.64 c0.48 1.48 1.74 2.56 3.54 2.56 c1.6 0 2.96 -0.92 2.96 -2.34 c0 -1.6 -1.12 -2.2 -2.78 -2.84 l-1.04 -0.4 c-2.12 -0.8 -3.48 -1.9 -3.48 -3.88 c0 -2.04 1.8 -3.56 4.26 -3.56 z M357.35999999999996 9.76 c2.18 0 3.78 1.44 4.38 2.94 l-1.26 0.68 c-0.64 -1.28 -1.66 -2.12 -3.12 -2.12 c-1.54 0 -2.6 0.88 -2.6 2.1 c0 1.14 0.72 1.86 2.24 2.44 l1.02 0.38 c2.52 0.94 4.1 2.02 4.1 4.24 c0 2.4 -2.3 3.88 -4.68 3.88 s-4.34 -1.44 -4.88 -3.44 l1.34 -0.64 c0.48 1.48 1.74 2.56 3.54 2.56 c1.6 0 2.96 -0.92 2.96 -2.34 c0 -1.6 -1.12 -2.2 -2.78 -2.84 l-1.04 -0.4 c-2.12 -0.8 -3.48 -1.9 -3.48 -3.88 c0 -2.04 1.8 -3.56 4.26 -3.56 z  M381.3399999999999 24 l-1.44 -3.3 l-7.48 0 l-1.44 3.3 l-1.76 0 l6.24 -14 l1.38 0 l6.26 14 l-1.76 0 z M373.03999999999996 19.3 l6.24 0 l-3.12 -7.12 z M394.4599999999999 10 l1.66 0 l0 14 l-1.28 0 l-8.48 -10.96 l0 10.96 l-1.66 0 l0 -14 l1.28 0 l8.48 10.98 l0 -10.98 z M402.67999999999995 10 c4.08 0 7.08 3.1 7.08 7 s-3 7 -7.08 7 l-4.16 0 l0 -14 l4.16 0 z M402.6599999999999 22.42 c3.34 0 5.4 -2.42 5.4 -5.42 s-2.06 -5.42 -5.4 -5.42 l-2.48 0 l0 10.84 l2.48 0 z  M426.79999999999995 10 l0 1.56 l-3.88 0 l0 12.44 l-1.66 0 l0 -12.44 l-3.9 0 l0 -1.56 l9.44 0 z M430.46 22.44 l6.66 0 l0 1.56 l-7.06 0 l-1.26 0 l0 -14 l1.66 0 l6.48 0 l0 1.56 l-6.48 0 l0 4.64 l5.04 0 l0 1.52 l-5.04 0 l0 4.72 z M450.78 22.5 c-1.28 1.1 -2.9 1.7 -4.7 1.7 c-3.64 0 -7.16 -2.96 -7.16 -7.2 s3.52 -7.2 7.16 -7.2 c1.78 0 3.38 0.6 4.64 1.66 l-1.02 1.16 c-0.98 -0.78 -2.24 -1.24 -3.5 -1.24 c-2.86 0 -5.56 2.32 -5.56 5.62 s2.7 5.62 5.56 5.62 c1.28 0 2.56 -0.48 3.54 -1.28 z M461.46 10 l1.66 0 l0 14 l-1.66 0 l0 -6.12 l-7.12 0 l0 6.12 l-1.66 0 l0 -14 l1.66 0 l0 6.32 l7.12 0 l0 -6.32 z M475.2799999999999 10 l1.66 0 l0 14 l-1.28 0 l-8.48 -10.96 l0 10.96 l-1.66 0 l0 -14 l1.28 0 l8.48 10.98 l0 -10.98 z M486.19999999999993 9.8 c3.64 0 7.16 2.96 7.16 7.2 s-3.52 7.2 -7.16 7.2 c-3.66 0 -7.16 -2.96 -7.16 -7.2 s3.5 -7.2 7.16 -7.2 z M486.19999999999993 22.62 c2.74 0 5.44 -2.32 5.44 -5.62 s-2.7 -5.62 -5.44 -5.62 c-2.76 0 -5.44 2.32 -5.44 5.62 s2.68 5.62 5.44 5.62 z M497.11999999999995 22.44 l6.28 0 l0 1.56 l-7.94 0 l0 -14 l1.66 0 l0 12.44 z M512.2599999999999 9.8 c3.64 0 7.16 2.96 7.16 7.2 s-3.52 7.2 -7.16 7.2 c-3.66 0 -7.16 -2.96 -7.16 -7.2 s3.5 -7.2 7.16 -7.2 z M512.2599999999999 22.62 c2.74 0 5.44 -2.32 5.44 -5.62 s-2.7 -5.62 -5.44 -5.62 c-2.76 0 -5.44 2.32 -5.44 5.62 s2.68 5.62 5.44 5.62 z M534.78 16.96 c0.3 4.48 -2.76 7.24 -6.4 7.24 c-3.74 0 -7.16 -2.96 -7.16 -7.2 s3.5 -7.2 7.16 -7.2 c1.76 0 3.36 0.6 4.62 1.66 l-1.02 1.16 c-0.98 -0.78 -2.24 -1.24 -3.5 -1.24 c-2.86 0 -5.54 2.32 -5.54 5.62 s2.6 5.62 5.44 5.62 c2.48 0 4.46 -1.34 4.84 -4.22 l-4.08 0 l0 -1.44 l5.64 0 z M548.4 10 l-5.22 7.54 l0 6.46 l-1.66 0 l0 -6.46 l-5.22 -7.54 l1.9 0 l4.14 6.02 l4.16 -6.02 l1.9 0 z"></path></g>
			</g>
		</svg>
	